<?xml version="1.0" standalone="no"?>
<!DOCTYPE svg PUBLIC "-//W3C//DTD SVG 20010904//EN"
 "http://www.w3.org/TR/2001/REC-SVG-20010904/DTD/svg10.dtd">
<svg version="1.0" xmlns="http://www.w3.org/2000/svg"
 width="512.000000pt" height="512.000000pt" viewBox="0 0 512.000000 512.000000"
 preserveAspectRatio="xMidYMid meet">
<metadata>
Created by potrace 1.11, written by Peter Selinger 2001-2013
</metadata>
<g transform="translate(0.000000,512.000000) scale(0.100000,-0.100000)"
fill="#000000" stroke="none">
<path d="M2389 5106 c-2 -2 -38 -7 -79 -10 -41 -4 -86 -9 -100 -11 -14 -2 -44
-6 -66 -9 -34 -5 -132 -24 -257 -51 -65 -14 -277 -87 -362 -125 -315 -141
-527 -282 -741 -495 -218 -217 -370 -450 -464 -710 -18 -49 -35 -97 -38 -105
-9 -26 -10 -32 -35 -148 -12 -62 -26 -110 -30 -107 -4 2 -3 0 2 -6 5 -6 5 -27
0 -47 -4 -20 -8 -122 -7 -227 1 -258 25 -413 99 -627 43 -125 115 -277 158
-330 11 -14 11 -26 -2 -76 -48 -189 17 -424 157 -576 25 -27 43 -53 39 -59 -3
-6 -1 -7 5 -3 7 4 35 -11 64 -32 95 -69 204 -109 331 -119 65 -5 77 -9 78 -24
1 -11 2 -22 3 -26 1 -5 6 -35 11 -68 5 -33 9 -62 10 -65 1 -3 7 -25 14 -50 7
-25 15 -52 16 -60 7 -29 64 -168 97 -238 77 -157 223 -339 348 -433 25 -18 47
-36 50 -39 25 -26 203 -112 300 -144 182 -61 296 -74 595 -71 143 1 269 4 280
7 11 3 40 9 65 13 250 39 515 175 676 347 71 76 159 202 211 304 47 92 98 215
108 260 2 10 11 44 19 74 9 30 21 90 27 133 l11 77 53 0 c68 0 188 31 267 69
63 31 198 132 214 162 5 9 27 42 48 75 61 91 98 209 102 324 2 58 -2 118 -11
155 l-14 60 43 75 c62 109 89 170 134 305 66 200 86 333 86 590 1 212 -9 353
-27 383 -3 4 -8 23 -11 42 -3 19 -10 50 -15 68 -5 17 -7 32 -4 32 3 0 1 6 -5
13 -5 6 -15 32 -22 56 -28 106 -155 363 -226 458 -13 17 -24 36 -24 41 0 6 -4
12 -8 14 -4 2 -30 32 -57 68 -79 104 -254 277 -364 360 -18 14 -45 34 -59 46
-15 11 -63 44 -107 72 -44 28 -84 55 -90 59 -21 17 -284 143 -350 168 -100 38
-265 91 -297 95 -4 1 -22 6 -40 11 -143 42 -374 70 -604 74 -111 2 -203 2
-205 1z m471 -209 c14 -3 45 -8 70 -12 25 -3 79 -13 120 -22 41 -8 84 -17 96
-19 57 -11 241 -71 337 -110 187 -76 354 -171 516 -292 87 -65 276 -249 344
-334 201 -252 340 -586 364 -877 12 -137 6 -353 -13 -456 -43 -242 -103 -405
-212 -579 -59 -93 -59 -94 -45 -127 20 -46 40 -157 36 -194 -7 -65 -12 -91
-22 -125 -45 -147 -185 -276 -337 -310 -67 -16 -158 -14 -227 5 -32 8 -60 15
-62 15 -4 0 -11 -36 -20 -95 -3 -22 -10 -69 -16 -105 -6 -36 -13 -82 -15 -102
-4 -30 -22 -104 -38 -153 -1 -5 -7 -23 -11 -40 -19 -71 -96 -227 -158 -320
-68 -101 -255 -275 -296 -275 -6 0 -11 -4 -11 -9 0 -10 -112 -63 -192 -90 -59
-20 -177 -45 -263 -56 -58 -8 -434 -8 -485 -1 -19 3 -56 8 -82 11 -114 13
-388 116 -388 145 0 6 -4 9 -9 5 -13 -7 -145 99 -205 166 -61 67 -138 184
-177 267 -70 148 -105 278 -134 488 -3 26 -8 50 -10 54 -2 3 -5 28 -6 54 -2
26 -7 49 -11 52 -5 3 -23 0 -42 -6 -128 -42 -305 -18 -404 56 -139 102 -197
215 -197 379 0 97 7 141 31 186 14 28 13 31 -40 111 -97 149 -167 323 -206
510 -25 122 -34 233 -33 398 1 116 8 185 38 345 13 68 88 273 131 358 94 187
189 315 358 482 201 199 388 322 696 458 107 47 382 126 495 142 23 3 50 7 60
9 11 2 49 7 85 11 36 4 67 9 69 11 5 5 490 -4 521 -9z"/>
<path d="M1073 3219 c-145 -28 -270 -154 -341 -344 -46 -122 -64 -379 -35
-510 48 -226 189 -433 379 -556 226 -148 515 -185 762 -97 97 34 173 73 245
127 66 48 197 183 197 202 0 4 6 14 14 21 26 26 96 184 117 264 15 58 21 113
22 206 l2 126 115 1 116 1 1 -112 c1 -62 4 -124 7 -138 3 -14 10 -45 15 -70
28 -132 108 -280 210 -392 193 -211 512 -322 781 -272 19 3 46 8 60 10 79 14
221 76 309 136 155 106 297 307 346 493 40 152 38 339 -6 496 -12 41 -22 79
-23 84 -7 37 -87 163 -133 210 -98 100 -182 127 -371 120 -62 -2 -116 -6 -120
-9 -28 -16 -201 -22 -533 -16 -209 4 -300 -34 -410 -169 l-36 -44 -213 -1
-212 -1 -33 45 c-44 60 -83 94 -145 125 -71 36 -137 47 -270 45 -353 -5 -462
-2 -542 16 -41 10 -232 12 -275 3z"/>
<path d="M2513 2093 c-41 -8 -107 -78 -153 -164 -37 -70 -44 -93 -45 -141 0
-67 20 -101 81 -132 54 -29 226 -36 290 -11 49 18 103 75 105 108 4 77 -10
117 -76 222 -61 97 -122 133 -202 118z"/>
<path d="M3379 1453 c-15 -9 -35 -30 -45 -47 -74 -126 -290 -273 -499 -339
-147 -46 -257 -55 -430 -34 -86 10 -143 -62 -110 -140 16 -39 43 -53 120 -68
120 -23 375 2 495 49 19 8 37 14 40 13 3 0 36 14 73 31 38 18 70 32 73 32 2 0
34 18 70 40 36 22 68 40 71 40 2 0 26 17 51 37 226 181 299 322 199 383 -39
24 -73 25 -108 3z"/>
</g>
</svg>
